<svg width="64" height="64" viewBox="0 0 64 64" fill="none" xmlns="http://www.w3.org/2000/svg">
<rect width="64" height="64" fill="#EF233C"/>
<path d="M49.0004 7.88568L25.3097 31.2537C24.4492 30.405 23.7667 29.3975 23.301 28.2887C22.8353 27.1798 22.5956 25.9913 22.5956 24.7911C22.5956 23.5908 22.8353 22.4023 23.301 21.2935C23.7667 20.1846 24.4492 19.1771 25.3097 18.3284L35.8948 7.88568C37.6332 6.1723 39.9901 5.20984 42.4476 5.20984C44.9051 5.20984 47.262 6.1723 49.0004 7.88568V7.88568Z" fill="url(#paint0_linear)"/>
<path style="mix-blend-mode:soft-light" d="M28.562 19.1284L39.1132 8.71732C40.5811 7.26631 42.5039 6.34843 44.5683 6.11324C43.2899 5.89883 41.9781 5.98979 40.7427 6.3785C39.5073 6.76721 38.3844 7.44235 37.4681 8.34732L28.1797 17.5092C27.2659 18.4137 26.5847 19.5207 26.1932 20.7379C25.8016 21.955 25.7111 23.2469 25.9291 24.5057C26.1663 22.4715 27.0943 20.5763 28.562 19.1284V19.1284Z" fill="url(#paint1_linear)"/>
<path d="M41.8514 39.2333L24.7126 56.1369C22.9757 54.4225 22 52.098 22 49.6743C22 47.2506 22.9757 44.926 24.7126 43.2117L41.8604 26.3063C42.7203 27.1556 43.4022 28.1638 43.8672 29.2731C44.3321 30.3824 44.571 31.5712 44.5702 32.7716C44.5693 33.972 44.3288 35.1605 43.8623 36.2692C43.3958 37.3779 42.7125 38.3851 41.8514 39.2333V39.2333Z" fill="url(#paint2_linear)"/>
<path style="mix-blend-mode:soft-light" d="M27.0134 43.7948L42.0176 28.9949C41.9162 28.6618 41.732 28.359 41.4818 28.114V28.114L26.7312 42.6602C25.9796 43.4024 25.3868 44.2859 24.988 45.2583C24.5891 46.2307 24.3922 47.2723 24.4091 48.3211C24.8465 46.6079 25.7465 45.0437 27.0134 43.7948V43.7948Z" fill="url(#paint3_linear)"/>
<path d="M40.2993 25.8446L34.5494 24.1339L26.8794 31.6994L32.6918 33.3486L40.2993 25.8446Z" fill="url(#paint4_linear)"/>
<path d="M45.8775 31.2026C45.955 31.7218 45.9938 32.2459 45.9936 32.7707C45.9975 34.1563 45.7227 35.5289 45.1852 36.809C44.6478 38.0892 43.8582 39.2515 42.8624 40.2288L25.8093 57.0496C26.101 57.4482 26.4241 57.8235 26.7757 58.1719V58.1719L43.9234 41.2577C45.2296 39.9656 46.1137 38.3174 46.462 36.5254C46.8102 34.7334 46.6067 32.8795 45.8775 31.2026V31.2026Z" fill="url(#paint5_linear)"/>
<defs>
<linearGradient id="paint0_linear" x1="39.1743" y1="6.17136" x2="23.212" y2="51.7293" gradientUnits="userSpaceOnUse">
<stop stop-color="#385BA7"/>
<stop offset="0.203125" stop-color="#8860FF"/>
<stop offset="0.39" stop-color="#FF60D0"/>
<stop offset="1" stop-color="#78F6FF"/>
</linearGradient>
<linearGradient id="paint1_linear" x1="28.4191" y1="23.6212" x2="39.3298" y2="6.76004" gradientUnits="userSpaceOnUse">
<stop stop-color="white" stop-opacity="0"/>
<stop offset="1" stop-color="white"/>
</linearGradient>
<linearGradient id="paint2_linear" x1="2947.32" y1="543.868" x2="-384.212" y2="7640.12" gradientUnits="userSpaceOnUse">
<stop stop-color="#14213D"/>
<stop offset="0.25" stop-color="#7860FF"/>
<stop offset="0.39" stop-color="#FF60D0"/>
<stop offset="1" stop-color="#78F6FF"/>
</linearGradient>
<linearGradient id="paint3_linear" x1="903.125" y1="4444.79" x2="1578.34" y2="2923.88" gradientUnits="userSpaceOnUse">
<stop stop-color="white" stop-opacity="0"/>
<stop offset="1" stop-color="white"/>
</linearGradient>
<linearGradient id="paint4_linear" x1="41.4425" y1="6.96595" x2="25.4784" y2="52.5239" gradientUnits="userSpaceOnUse">
<stop stop-color="#14213D"/>
<stop offset="0.31" stop-color="#4E2A55"/>
<stop offset="0.34" stop-color="#582D5C"/>
<stop offset="0.39" stop-color="#72356E"/>
<stop offset="0.45" stop-color="#9D428C"/>
<stop offset="0.53" stop-color="#D854B5"/>
<stop offset="0.57" stop-color="#FF60D0"/>
<stop offset="0.78" stop-color="#7860FF"/>
<stop offset="1" stop-color="#78F6FF"/>
</linearGradient>
<linearGradient id="paint5_linear" x1="49.5161" y1="9.79379" x2="33.552" y2="55.3535" gradientUnits="userSpaceOnUse">
<stop stop-color="#14213D"/>
<stop offset="0.45" stop-color="#352752"/>
<stop offset="0.5" stop-color="#382A5A"/>
<stop offset="0.57" stop-color="#413171"/>
<stop offset="0.66" stop-color="#4F3D96"/>
<stop offset="0.77" stop-color="#634EC9"/>
<stop offset="0.87" stop-color="#7860FF"/>
<stop offset="1" stop-color="#78F6FF"/>
</linearGradient>
</defs>
</svg>
