<svg width="64" height="64" viewBox="0 0 64 64" fill="none" xmlns="http://www.w3.org/2000/svg">
<rect width="64" height="64" fill="#EF233C"/>
<path d="M45.0004 8.67585L21.3097 32.0439C20.4492 31.1952 19.7667 30.1877 19.301 29.0788C18.8353 27.97 18.5956 26.7815 18.5956 25.5812C18.5956 24.381 18.8353 23.1925 19.301 22.0836C19.7667 20.9748 20.4492 19.9672 21.3097 19.1186L31.8948 8.67585C33.6332 6.96246 35.9901 6 38.4476 6C40.9051 6 43.262 6.96246 45.0004 8.67585Z" fill="url(#paint0_linear)"/>
<path style="mix-blend-mode:soft-light" d="M24.562 19.9185L35.1132 9.50748C36.5811 8.05647 38.5039 7.13859 40.5683 6.9034C39.2899 6.68899 37.9781 6.77995 36.7427 7.16867C35.5073 7.55738 34.3844 8.23251 33.4681 9.13748L24.1797 18.2993C23.2659 19.2038 22.5847 20.3109 22.1932 21.528C21.8016 22.7452 21.7111 24.0371 21.9291 25.2958C22.1663 23.2617 23.0943 21.3665 24.562 19.9185Z" fill="url(#paint1_linear)"/>
<path d="M37.8514 40.0235L20.7126 56.9271C18.9757 55.2127 18 52.8882 18 50.4644C18 48.0407 18.9757 45.7162 20.7126 44.0018L37.8604 27.0964C38.7203 27.9458 39.4022 28.9539 39.8672 30.0633C40.3321 31.1726 40.571 32.3614 40.5702 33.5618C40.5693 34.7622 40.3288 35.9506 39.8623 37.0593C39.3958 38.168 38.7125 39.1752 37.8514 40.0235V40.0235Z" fill="url(#paint2_linear)"/>
<path style="mix-blend-mode:soft-light" d="M23.0134 44.585L38.0176 29.7851C37.9162 29.452 37.732 29.1492 37.4818 28.9041L22.7312 43.4503C21.9796 44.1925 21.3868 45.076 20.988 46.0485C20.5891 47.0209 20.3922 48.0624 20.4091 49.1113C20.8465 47.3981 21.7465 45.8338 23.0134 44.585Z" fill="url(#paint3_linear)"/>
<path d="M36.2993 26.6348L30.5494 24.924L22.8794 32.4896L28.6918 34.1387L36.2993 26.6348Z" fill="url(#paint4_linear)"/>
<path d="M41.8775 31.9927C41.955 32.5119 41.9938 33.036 41.9936 33.5608C41.9975 34.9464 41.7227 36.319 41.1852 37.5992C40.6478 38.8794 39.8582 40.0417 38.8624 41.0189L21.8093 57.8397C22.101 58.2384 22.4241 58.6136 22.7757 58.9621L39.9234 42.0479C41.2296 40.7558 42.1137 39.1076 42.462 37.3156C42.8102 35.5235 42.6067 33.6697 41.8775 31.9927Z" fill="url(#paint5_linear)"/>
<defs>
<linearGradient id="paint0_linear" x1="35.1743" y1="6.96152" x2="19.212" y2="52.5195" gradientUnits="userSpaceOnUse">
<stop stop-color="#385BA7"/>
<stop offset="0.203125" stop-color="#8860FF"/>
<stop offset="0.39" stop-color="#FF60D0"/>
<stop offset="1" stop-color="#78F6FF"/>
</linearGradient>
<linearGradient id="paint1_linear" x1="24.4191" y1="24.4113" x2="35.3298" y2="7.5502" gradientUnits="userSpaceOnUse">
<stop stop-color="white" stop-opacity="0"/>
<stop offset="1" stop-color="white"/>
</linearGradient>
<linearGradient id="paint2_linear" x1="29.2851" y1="27.0964" x2="29.2851" y2="56.9271" gradientUnits="userSpaceOnUse">
<stop stop-color="white" stop-opacity="0"/>
<stop offset="0.0677083" stop-color="#D854B5"/>
<stop offset="0.324268" stop-color="#37B4FA" stop-opacity="0.675732"/>
<stop offset="0.557292" stop-color="#266CF6"/>
<stop offset="1" stop-color="#132C62"/>
<stop offset="1" stop-color="#D854B5"/>
</linearGradient>
<linearGradient id="paint3_linear" x1="899.125" y1="4445.58" x2="1574.34" y2="2924.67" gradientUnits="userSpaceOnUse">
<stop stop-color="white" stop-opacity="0"/>
<stop offset="1" stop-color="white"/>
</linearGradient>
<linearGradient id="paint4_linear" x1="37.4425" y1="7.75611" x2="21.4784" y2="53.3141" gradientUnits="userSpaceOnUse">
<stop stop-color="#14213D"/>
<stop offset="0.31" stop-color="#4E2A55"/>
<stop offset="0.34" stop-color="#582D5C"/>
<stop offset="0.39" stop-color="#72356E"/>
<stop offset="0.45" stop-color="#9D428C"/>
<stop offset="0.53" stop-color="#D854B5"/>
<stop offset="0.57" stop-color="#FF60D0"/>
<stop offset="0.78" stop-color="#7860FF"/>
<stop offset="1" stop-color="#78F6FF"/>
</linearGradient>
<linearGradient id="paint5_linear" x1="45.5161" y1="10.5839" x2="29.552" y2="56.1437" gradientUnits="userSpaceOnUse">
<stop stop-color="#14213D"/>
<stop offset="0.45" stop-color="#352752"/>
<stop offset="0.5" stop-color="#382A5A"/>
<stop offset="0.57" stop-color="#413171"/>
<stop offset="0.66" stop-color="#4F3D96"/>
<stop offset="0.77" stop-color="#634EC9"/>
<stop offset="0.87" stop-color="#7860FF"/>
<stop offset="1" stop-color="#78F6FF"/>
</linearGradient>
</defs>
</svg>
