<svg width="27" height="53" viewBox="0 0 27 53" fill="none" xmlns="http://www.w3.org/2000/svg">
<path d="M27.0004 2.67585L3.3097 26.0439C2.44922 25.1952 1.76665 24.1877 1.30096 23.0788C0.83527 21.97 0.595581 20.7815 0.595581 19.5812C0.595581 18.381 0.83527 17.1925 1.30096 16.0836C1.76665 14.9748 2.44922 13.9672 3.3097 13.1186L13.8948 2.67585C15.6332 0.962461 17.9901 0 20.4476 0C22.9051 0 25.262 0.962461 27.0004 2.67585Z" fill="url(#paint0_linear)"/>
<path style="mix-blend-mode:soft-light" d="M6.56196 13.9185L17.1132 3.50748C18.5811 2.05647 20.5039 1.13859 22.5683 0.903397C21.2899 0.688991 19.9781 0.779955 18.7427 1.16867C17.5073 1.55738 16.3844 2.23251 15.4681 3.13748L6.17971 12.2993C5.26586 13.2038 4.58472 14.3109 4.19318 15.528C3.80164 16.7452 3.71109 18.0371 3.92907 19.2958C4.16634 17.2617 5.09427 15.3665 6.56196 13.9185Z" fill="url(#paint1_linear)"/>
<path d="M19.8514 34.0235L2.71264 50.9271C0.975705 49.2127 0 46.8882 0 44.4644C0 42.0407 0.975705 39.7162 2.71264 38.0018L19.8604 21.0964C20.7203 21.9458 21.4022 22.9539 21.8672 24.0633C22.3321 25.1726 22.571 26.3614 22.5702 27.5618C22.5693 28.7622 22.3288 29.9506 21.8623 31.0593C21.3958 32.168 20.7125 33.1752 19.8514 34.0235V34.0235Z" fill="url(#paint2_linear)"/>
<path style="mix-blend-mode:soft-light" d="M5.01339 38.585L20.0176 23.7851C19.9162 23.452 19.732 23.1492 19.4818 22.9041L4.73116 37.4503C3.97963 38.1925 3.38685 39.076 2.98797 40.0485C2.58909 41.0209 2.39223 42.0624 2.40908 43.1113C2.84646 41.3981 3.74648 39.8338 5.01339 38.585Z" fill="url(#paint3_linear)"/>
<path d="M18.2993 20.6348L12.5494 18.924L4.87939 26.4896L10.6918 28.1387L18.2993 20.6348Z" fill="url(#paint4_linear)"/>
<path d="M23.8775 25.9927C23.955 26.5119 23.9938 27.036 23.9936 27.5608C23.9975 28.9464 23.7227 30.319 23.1852 31.5992C22.6478 32.8794 21.8582 34.0417 20.8624 35.0189L3.80933 51.8397C4.10099 52.2384 4.42411 52.6136 4.77567 52.9621L21.9234 36.0479C23.2296 34.7558 24.1137 33.1076 24.462 31.3156C24.8102 29.5235 24.6067 27.6697 23.8775 25.9927Z" fill="url(#paint5_linear)"/>
<defs>
<linearGradient id="paint0_linear" x1="17.1743" y1="0.961523" x2="1.21202" y2="46.5195" gradientUnits="userSpaceOnUse">
<stop stop-color="#385BA7"/>
<stop offset="0.203125" stop-color="#8860FF"/>
<stop offset="0.39" stop-color="#FF60D0"/>
<stop offset="1" stop-color="#78F6FF"/>
</linearGradient>
<linearGradient id="paint1_linear" x1="6.41907" y1="18.4113" x2="17.3298" y2="1.5502" gradientUnits="userSpaceOnUse">
<stop stop-color="white" stop-opacity="0"/>
<stop offset="1" stop-color="white"/>
</linearGradient>
<linearGradient id="paint2_linear" x1="11.2851" y1="21.0964" x2="11.2851" y2="50.9271" gradientUnits="userSpaceOnUse">
<stop stop-color="white" stop-opacity="0"/>
<stop offset="0.0677083" stop-color="#D854B5"/>
<stop offset="0.324268" stop-color="#37B4FA" stop-opacity="0.675732"/>
<stop offset="0.557292" stop-color="#266CF6"/>
<stop offset="1" stop-color="#132C62"/>
<stop offset="1" stop-color="#D854B5"/>
</linearGradient>
<linearGradient id="paint3_linear" x1="881.125" y1="4439.58" x2="1556.34" y2="2918.67" gradientUnits="userSpaceOnUse">
<stop stop-color="white" stop-opacity="0"/>
<stop offset="1" stop-color="white"/>
</linearGradient>
<linearGradient id="paint4_linear" x1="19.4425" y1="1.75611" x2="3.47838" y2="47.3141" gradientUnits="userSpaceOnUse">
<stop stop-color="#14213D"/>
<stop offset="0.31" stop-color="#4E2A55"/>
<stop offset="0.34" stop-color="#582D5C"/>
<stop offset="0.39" stop-color="#72356E"/>
<stop offset="0.45" stop-color="#9D428C"/>
<stop offset="0.53" stop-color="#D854B5"/>
<stop offset="0.57" stop-color="#FF60D0"/>
<stop offset="0.78" stop-color="#7860FF"/>
<stop offset="1" stop-color="#78F6FF"/>
</linearGradient>
<linearGradient id="paint5_linear" x1="27.5161" y1="4.58395" x2="11.552" y2="50.1437" gradientUnits="userSpaceOnUse">
<stop stop-color="#14213D"/>
<stop offset="0.45" stop-color="#352752"/>
<stop offset="0.5" stop-color="#382A5A"/>
<stop offset="0.57" stop-color="#413171"/>
<stop offset="0.66" stop-color="#4F3D96"/>
<stop offset="0.77" stop-color="#634EC9"/>
<stop offset="0.87" stop-color="#7860FF"/>
<stop offset="1" stop-color="#78F6FF"/>
</linearGradient>
</defs>
</svg>
