<svg width="161" height="32" viewBox="0 0 161 32" fill="none" xmlns="http://www.w3.org/2000/svg">
<path d="M9.5486 24.3C8.2686 24.3 7.0486 24.1 5.8886 23.7C4.7286 23.3 3.7186 22.74 2.8586 22.02C1.9986 21.3 1.3686 20.47 0.968597 19.53C0.768597 19.11 0.768597 18.72 0.968597 18.36C1.1886 18 1.5486 17.77 2.0486 17.67C2.4086 17.59 2.7586 17.65 3.0986 17.85C3.4586 18.03 3.7286 18.31 3.9086 18.69C4.1486 19.19 4.5386 19.65 5.0786 20.07C5.6386 20.49 6.3086 20.83 7.0886 21.09C7.8686 21.35 8.6886 21.48 9.5486 21.48C10.5086 21.48 11.3886 21.33 12.1886 21.03C13.0086 20.73 13.6686 20.3 14.1686 19.74C14.6686 19.16 14.9186 18.45 14.9186 17.61C14.9186 16.55 14.4986 15.6 13.6586 14.76C12.8386 13.92 11.4786 13.4 9.5786 13.2C7.0986 12.96 5.1486 12.23 3.7286 11.01C2.3086 9.79 1.5986 8.28 1.5986 6.48C1.5986 5.16 1.9686 4.04 2.7086 3.12C3.4486 2.2 4.4486 1.5 5.7086 1.02C6.9886 0.539999 8.4086 0.299999 9.9686 0.299999C11.7886 0.299999 13.2786 0.669999 14.4386 1.41C15.5986 2.15 16.5586 3.13 17.3186 4.35C17.5986 4.79 17.7086 5.21 17.6486 5.61C17.6086 5.99 17.4186 6.29 17.0786 6.51C16.6986 6.75 16.2886 6.8 15.8486 6.66C15.4086 6.52 15.0786 6.26 14.8586 5.88C14.3586 5.02 13.7086 4.35 12.9086 3.87C12.1286 3.39 11.1186 3.14 9.8786 3.12C8.3986 3.1 7.1586 3.38 6.1586 3.96C5.1586 4.52 4.6586 5.39 4.6586 6.57C4.6586 7.17 4.8086 7.75 5.1086 8.31C5.4286 8.85 5.9986 9.32 6.8186 9.72C7.6586 10.12 8.8586 10.4 10.4186 10.56C12.7986 10.8 14.6486 11.53 15.9686 12.75C17.3086 13.95 17.9786 15.54 17.9786 17.52C17.9786 18.66 17.7386 19.65 17.2586 20.49C16.7986 21.33 16.1686 22.04 15.3686 22.62C14.5886 23.18 13.6886 23.6 12.6686 23.88C11.6686 24.16 10.6286 24.3 9.5486 24.3ZM22.7929 31.02C22.3529 31.02 21.9829 30.87 21.6829 30.57C21.4029 30.29 21.2629 29.93 21.2629 29.49V15.81C21.2829 14.23 21.6529 12.81 22.3729 11.55C23.0929 10.29 24.0729 9.3 25.3129 8.58C26.5529 7.84 27.9529 7.47 29.5129 7.47C31.0929 7.47 32.5029 7.84 33.7429 8.58C34.9829 9.3 35.9629 10.29 36.6829 11.55C37.4229 12.81 37.7929 14.23 37.7929 15.81C37.7929 17.39 37.4529 18.81 36.7729 20.07C36.1129 21.31 35.2029 22.3 34.0429 23.04C32.8829 23.76 31.5729 24.12 30.1129 24.12C28.9329 24.12 27.8429 23.88 26.8429 23.4C25.8629 22.9 25.0229 22.23 24.3229 21.39V29.49C24.3229 29.93 24.1829 30.29 23.9029 30.57C23.6229 30.87 23.2529 31.02 22.7929 31.02ZM29.5129 21.42C30.5329 21.42 31.4429 21.18 32.2429 20.7C33.0429 20.2 33.6729 19.53 34.1329 18.69C34.6129 17.83 34.8529 16.87 34.8529 15.81C34.8529 14.73 34.6129 13.77 34.1329 12.93C33.6729 12.07 33.0429 11.4 32.2429 10.92C31.4429 10.42 30.5329 10.17 29.5129 10.17C28.5129 10.17 27.6029 10.42 26.7829 10.92C25.9829 11.4 25.3529 12.07 24.8929 12.93C24.4329 13.77 24.2029 14.73 24.2029 15.81C24.2029 16.87 24.4329 17.83 24.8929 18.69C25.3529 19.53 25.9829 20.2 26.7829 20.7C27.6029 21.18 28.5129 21.42 29.5129 21.42ZM47.9966 24.12C46.5366 24.12 45.2266 23.76 44.0666 23.04C42.9066 22.3 41.9866 21.31 41.3066 20.07C40.6466 18.81 40.3166 17.39 40.3166 15.81C40.3166 14.23 40.6766 12.81 41.3966 11.55C42.1366 10.29 43.1266 9.3 44.3666 8.58C45.6266 7.84 47.0366 7.47 48.5966 7.47C50.1566 7.47 51.5566 7.84 52.7966 8.58C54.0366 9.3 55.0166 10.29 55.7366 11.55C56.4766 12.81 56.8466 14.23 56.8466 15.81V22.5C56.8466 22.94 56.6966 23.31 56.3966 23.61C56.1166 23.89 55.7566 24.03 55.3166 24.03C54.8766 24.03 54.5066 23.89 54.2066 23.61C53.9266 23.31 53.7866 22.94 53.7866 22.5V21.39C53.0866 22.23 52.2366 22.9 51.2366 23.4C50.2566 23.88 49.1766 24.12 47.9966 24.12ZM48.5966 21.42C49.6166 21.42 50.5266 21.18 51.3266 20.7C52.1266 20.2 52.7566 19.53 53.2166 18.69C53.6766 17.83 53.9066 16.87 53.9066 15.81C53.9066 14.73 53.6766 13.77 53.2166 12.93C52.7566 12.07 52.1266 11.4 51.3266 10.92C50.5266 10.42 49.6166 10.17 48.5966 10.17C47.5966 10.17 46.6866 10.42 45.8666 10.92C45.0666 11.4 44.4266 12.07 43.9466 12.93C43.4866 13.77 43.2566 14.73 43.2566 15.81C43.2566 16.87 43.4866 17.83 43.9466 18.69C44.4266 19.53 45.0666 20.2 45.8666 20.7C46.6866 21.18 47.5966 21.42 48.5966 21.42ZM61.7308 31.02C61.2908 31.02 60.9208 30.87 60.6208 30.57C60.3408 30.29 60.2008 29.93 60.2008 29.49V15.81C60.2208 14.23 60.5908 12.81 61.3108 11.55C62.0308 10.29 63.0108 9.3 64.2508 8.58C65.4908 7.84 66.8908 7.47 68.4508 7.47C70.0308 7.47 71.4408 7.84 72.6808 8.58C73.9208 9.3 74.9008 10.29 75.6208 11.55C76.3608 12.81 76.7308 14.23 76.7308 15.81C76.7308 17.39 76.3908 18.81 75.7108 20.07C75.0508 21.31 74.1408 22.3 72.9808 23.04C71.8208 23.76 70.5108 24.12 69.0508 24.12C67.8708 24.12 66.7808 23.88 65.7808 23.4C64.8008 22.9 63.9608 22.23 63.2608 21.39V29.49C63.2608 29.93 63.1208 30.29 62.8408 30.57C62.5608 30.87 62.1908 31.02 61.7308 31.02ZM68.4508 21.42C69.4708 21.42 70.3808 21.18 71.1808 20.7C71.9808 20.2 72.6108 19.53 73.0708 18.69C73.5508 17.83 73.7908 16.87 73.7908 15.81C73.7908 14.73 73.5508 13.77 73.0708 12.93C72.6108 12.07 71.9808 11.4 71.1808 10.92C70.3808 10.42 69.4708 10.17 68.4508 10.17C67.4508 10.17 66.5408 10.42 65.7208 10.92C64.9208 11.4 64.2908 12.07 63.8308 12.93C63.3708 13.77 63.1408 14.73 63.1408 15.81C63.1408 16.87 63.3708 17.83 63.8308 18.69C64.2908 19.53 64.9208 20.2 65.7208 20.7C66.5408 21.18 67.4508 21.42 68.4508 21.42ZM86.0645 24.12C84.6645 24.12 83.3645 23.91 82.1645 23.49C80.9845 23.05 80.0645 22.5 79.4045 21.84C79.1045 21.52 78.9745 21.16 79.0145 20.76C79.0745 20.34 79.2745 20 79.6145 19.74C80.0145 19.42 80.4045 19.29 80.7845 19.35C81.1845 19.39 81.5245 19.56 81.8045 19.86C82.1445 20.24 82.6845 20.6 83.4245 20.94C84.1845 21.26 85.0245 21.42 85.9445 21.42C87.1045 21.42 87.9845 21.23 88.5845 20.85C89.2045 20.47 89.5245 19.98 89.5445 19.38C89.5645 18.78 89.2745 18.26 88.6745 17.82C88.0945 17.38 87.0245 17.02 85.4645 16.74C83.4445 16.34 81.9745 15.74 81.0545 14.94C80.1545 14.14 79.7045 13.16 79.7045 12C79.7045 10.98 80.0045 10.14 80.6045 9.48C81.2045 8.8 81.9745 8.3 82.9145 7.98C83.8545 7.64 84.8345 7.47 85.8545 7.47C87.1745 7.47 88.3445 7.68 89.3645 8.1C90.3845 8.52 91.1945 9.1 91.7945 9.84C92.0745 10.16 92.2045 10.5 92.1845 10.86C92.1645 11.2 91.9945 11.49 91.6745 11.73C91.3545 11.95 90.9745 12.02 90.5345 11.94C90.0945 11.86 89.7245 11.68 89.4245 11.4C88.9245 10.92 88.3845 10.59 87.8045 10.41C87.2245 10.23 86.5545 10.14 85.7945 10.14C84.9145 10.14 84.1645 10.29 83.5445 10.59C82.9445 10.89 82.6445 11.33 82.6445 11.91C82.6445 12.27 82.7345 12.6 82.9145 12.9C83.1145 13.18 83.4945 13.44 84.0545 13.68C84.6145 13.9 85.4345 14.12 86.5145 14.34C88.7745 14.78 90.3345 15.41 91.1945 16.23C92.0745 17.03 92.5145 18.02 92.5145 19.2C92.5145 20.12 92.2645 20.95 91.7645 21.69C91.2845 22.43 90.5645 23.02 89.6045 23.46C88.6645 23.9 87.4845 24.12 86.0645 24.12ZM96.7136 24.03C96.2736 24.03 95.9036 23.89 95.6036 23.61C95.3236 23.31 95.1836 22.94 95.1836 22.5V9.12C95.1836 8.66 95.3236 8.29 95.6036 8.01C95.9036 7.73 96.2736 7.59 96.7136 7.59C97.1736 7.59 97.5436 7.73 97.8236 8.01C98.1036 8.29 98.2436 8.66 98.2436 9.12V9.45C98.8636 8.83 99.6136 8.34 100.494 7.98C101.374 7.62 102.324 7.44 103.344 7.44C104.724 7.44 105.954 7.74 107.034 8.34C108.134 8.92 108.994 9.78 109.614 10.92C110.254 12.06 110.574 13.46 110.574 15.12V22.5C110.574 22.94 110.424 23.31 110.124 23.61C109.844 23.89 109.484 24.03 109.044 24.03C108.604 24.03 108.234 23.89 107.934 23.61C107.654 23.31 107.514 22.94 107.514 22.5V15.12C107.514 13.42 107.054 12.18 106.134 11.4C105.234 10.6 104.104 10.2 102.744 10.2C101.904 10.2 101.144 10.37 100.464 10.71C99.7836 11.05 99.2436 11.51 98.8436 12.09C98.4436 12.65 98.2436 13.3 98.2436 14.04V22.5C98.2436 22.94 98.1036 23.31 97.8236 23.61C97.5436 23.89 97.1736 24.03 96.7136 24.03ZM96.7136 18.03C96.2736 18.03 95.9036 17.89 95.6036 17.61C95.3236 17.31 95.1836 16.94 95.1836 16.5V2.1C95.1836 1.64 95.3236 1.27 95.6036 0.989999C95.9036 0.709999 96.2736 0.569999 96.7136 0.569999C97.1736 0.569999 97.5436 0.709999 97.8236 0.989999C98.1036 1.27 98.2436 1.64 98.2436 2.1V16.5C98.2436 16.94 98.1036 17.31 97.8236 17.61C97.5436 17.89 97.1736 18.03 96.7136 18.03ZM121.902 24.12C120.282 24.12 118.852 23.77 117.612 23.07C116.372 22.35 115.392 21.37 114.672 20.13C113.972 18.87 113.622 17.43 113.622 15.81C113.622 14.17 113.972 12.73 114.672 11.49C115.392 10.23 116.372 9.25 117.612 8.55C118.852 7.83 120.282 7.47 121.902 7.47C123.502 7.47 124.922 7.83 126.162 8.55C127.402 9.25 128.372 10.23 129.072 11.49C129.792 12.73 130.152 14.17 130.152 15.81C130.152 17.43 129.802 18.87 129.102 20.13C128.402 21.37 127.432 22.35 126.192 23.07C124.952 23.77 123.522 24.12 121.902 24.12ZM121.902 21.42C122.942 21.42 123.862 21.18 124.662 20.7C125.462 20.22 126.082 19.56 126.522 18.72C126.982 17.88 127.212 16.91 127.212 15.81C127.212 14.71 126.982 13.74 126.522 12.9C126.082 12.04 125.462 11.37 124.662 10.89C123.862 10.41 122.942 10.17 121.902 10.17C120.862 10.17 119.942 10.41 119.142 10.89C118.342 11.37 117.712 12.04 117.252 12.9C116.792 13.74 116.562 14.71 116.562 15.81C116.562 16.91 116.792 17.88 117.252 18.72C117.712 19.56 118.342 20.22 119.142 20.7C119.942 21.18 120.862 21.42 121.902 21.42ZM140.946 24.12C139.326 24.12 137.896 23.77 136.656 23.07C135.416 22.35 134.436 21.37 133.716 20.13C133.016 18.87 132.666 17.43 132.666 15.81C132.666 14.17 133.016 12.73 133.716 11.49C134.436 10.23 135.416 9.25 136.656 8.55C137.896 7.83 139.326 7.47 140.946 7.47C142.546 7.47 143.966 7.83 145.206 8.55C146.446 9.25 147.416 10.23 148.116 11.49C148.836 12.73 149.196 14.17 149.196 15.81C149.196 17.43 148.846 18.87 148.146 20.13C147.446 21.37 146.476 22.35 145.236 23.07C143.996 23.77 142.566 24.12 140.946 24.12ZM140.946 21.42C141.986 21.42 142.906 21.18 143.706 20.7C144.506 20.22 145.126 19.56 145.566 18.72C146.026 17.88 146.256 16.91 146.256 15.81C146.256 14.71 146.026 13.74 145.566 12.9C145.126 12.04 144.506 11.37 143.706 10.89C142.906 10.41 141.986 10.17 140.946 10.17C139.906 10.17 138.986 10.41 138.186 10.89C137.386 11.37 136.756 12.04 136.296 12.9C135.836 13.74 135.606 14.71 135.606 15.81C135.606 16.91 135.836 17.88 136.296 18.72C136.756 19.56 137.386 20.22 138.186 20.7C138.986 21.18 139.906 21.42 140.946 21.42ZM158.52 24C157.52 24 156.62 23.75 155.82 23.25C155.02 22.73 154.39 22.03 153.93 21.15C153.47 20.27 153.24 19.28 153.24 18.18V10.77H151.86C151.44 10.77 151.1 10.65 150.84 10.41C150.58 10.17 150.45 9.87 150.45 9.51C150.45 9.11 150.58 8.79 150.84 8.55C151.1 8.31 151.44 8.19 151.86 8.19H153.24V3.87C153.24 3.43 153.38 3.07 153.66 2.79C153.94 2.51 154.3 2.37 154.74 2.37C155.18 2.37 155.54 2.51 155.82 2.79C156.1 3.07 156.24 3.43 156.24 3.87V8.19H158.79C159.21 8.19 159.55 8.31 159.81 8.55C160.07 8.79 160.2 9.11 160.2 9.51C160.2 9.87 160.07 10.17 159.81 10.41C159.55 10.65 159.21 10.77 158.79 10.77H156.24V18.18C156.24 18.98 156.46 19.65 156.9 20.19C157.34 20.73 157.88 21 158.52 21H159.54C159.9 21 160.2 21.14 160.44 21.42C160.7 21.7 160.83 22.06 160.83 22.5C160.83 22.94 160.66 23.3 160.32 23.58C160 23.86 159.58 24 159.06 24H158.52Z" fill="white"/>
</svg>
